<mxfile host="app.diagrams.net" modified="2024-06-05T17:14:07.184Z" agent="Mozilla/5.0 (Windows NT 10.0; Win64; x64) AppleWebKit/537.36 (KHTML, like Gecko) Chrome/122.0.0.0 Safari/537.36" etag="BPgkCQIALEs3Y1fGzqle" version="24.4.14" type="device">
  <diagram name="Página-1" id="8DfP0YxEmhNhLQUD0GRi">
    <mxGraphModel dx="1707" dy="468" grid="1" gridSize="10" guides="1" tooltips="1" connect="1" arrows="1" fold="1" page="1" pageScale="1" pageWidth="827" pageHeight="1169" math="0" shadow="0">
      <root>
        <mxCell id="0" />
        <mxCell id="1" parent="0" />
        <mxCell id="E0lvzS-pT8e3lpkOTQFv-1" value="Universidade" style="swimlane;childLayout=stackLayout;horizontal=1;startSize=50;horizontalStack=0;rounded=1;fontSize=14;fontStyle=0;strokeWidth=2;resizeParent=0;resizeLast=1;shadow=0;dashed=0;align=center;arcSize=4;whiteSpace=wrap;html=1;" parent="1" vertex="1">
          <mxGeometry x="80" y="30" width="160" height="230" as="geometry" />
        </mxCell>
        <mxCell id="E0lvzS-pT8e3lpkOTQFv-2" value="codigo&amp;nbsp; PK&lt;div&gt;cnpj PK&lt;br&gt;&lt;div&gt;nome&lt;/div&gt;&lt;div&gt;endereco&lt;/div&gt;&lt;div&gt;cidade&lt;/div&gt;&lt;div&gt;estado&lt;/div&gt;&lt;div&gt;telefone&lt;/div&gt;&lt;/div&gt;" style="align=left;strokeColor=none;fillColor=none;spacingLeft=4;fontSize=12;verticalAlign=top;resizable=0;rotatable=0;part=1;html=1;" parent="E0lvzS-pT8e3lpkOTQFv-1" vertex="1">
          <mxGeometry y="50" width="160" height="180" as="geometry" />
        </mxCell>
        <mxCell id="E0lvzS-pT8e3lpkOTQFv-3" value="Áreas de Pesquisa" style="swimlane;childLayout=stackLayout;horizontal=1;startSize=50;horizontalStack=0;rounded=1;fontSize=14;fontStyle=0;strokeWidth=2;resizeParent=0;resizeLast=1;shadow=0;dashed=0;align=center;arcSize=4;whiteSpace=wrap;html=1;" parent="1" vertex="1">
          <mxGeometry x="300" y="10" width="160" height="230" as="geometry" />
        </mxCell>
        <mxCell id="E0lvzS-pT8e3lpkOTQFv-4" value="codigo&amp;nbsp; PK&lt;div&gt;descrição&lt;/div&gt;&lt;div&gt;codigouniversidade FK&lt;/div&gt;" style="align=left;strokeColor=none;fillColor=none;spacingLeft=4;fontSize=12;verticalAlign=top;resizable=0;rotatable=0;part=1;html=1;" parent="E0lvzS-pT8e3lpkOTQFv-3" vertex="1">
          <mxGeometry y="50" width="160" height="180" as="geometry" />
        </mxCell>
        <mxCell id="E0lvzS-pT8e3lpkOTQFv-5" value="Professores" style="swimlane;childLayout=stackLayout;horizontal=1;startSize=50;horizontalStack=0;rounded=1;fontSize=14;fontStyle=0;strokeWidth=2;resizeParent=0;resizeLast=1;shadow=0;dashed=0;align=center;arcSize=4;whiteSpace=wrap;html=1;" parent="1" vertex="1">
          <mxGeometry x="340" y="420" width="160" height="230" as="geometry" />
        </mxCell>
        <mxCell id="E0lvzS-pT8e3lpkOTQFv-6" value="codigo&amp;nbsp; PK&lt;div&gt;cpf PK&lt;br&gt;&lt;div&gt;nome&lt;/div&gt;&lt;div&gt;endereço&lt;/div&gt;&lt;div&gt;cidade&lt;/div&gt;&lt;div&gt;estado&lt;/div&gt;&lt;div&gt;telefone&lt;/div&gt;&lt;div&gt;email&lt;/div&gt;&lt;/div&gt;&lt;div&gt;codigodisciplina FK&lt;/div&gt;&lt;div&gt;codigocurso FK&lt;/div&gt;&lt;div&gt;codigoprojeto FK&lt;/div&gt;" style="align=left;strokeColor=none;fillColor=none;spacingLeft=4;fontSize=12;verticalAlign=top;resizable=0;rotatable=0;part=1;html=1;" parent="E0lvzS-pT8e3lpkOTQFv-5" vertex="1">
          <mxGeometry y="50" width="160" height="180" as="geometry" />
        </mxCell>
        <mxCell id="E0lvzS-pT8e3lpkOTQFv-7" value="Cursos" style="swimlane;childLayout=stackLayout;horizontal=1;startSize=50;horizontalStack=0;rounded=1;fontSize=14;fontStyle=0;strokeWidth=2;resizeParent=0;resizeLast=1;shadow=0;dashed=0;align=center;arcSize=4;whiteSpace=wrap;html=1;" parent="1" vertex="1">
          <mxGeometry x="80" y="340" width="160" height="200" as="geometry" />
        </mxCell>
        <mxCell id="E0lvzS-pT8e3lpkOTQFv-8" value="codigo&amp;nbsp; PK&lt;div&gt;nome&lt;/div&gt;&lt;div&gt;codigouniversidade FK&lt;/div&gt;&lt;div&gt;codigoprofessor FK&lt;/div&gt;&lt;div&gt;codigodisciplina FK&lt;/div&gt;&lt;div&gt;codigocoordenador FK&lt;/div&gt;" style="align=left;strokeColor=none;fillColor=none;spacingLeft=4;fontSize=12;verticalAlign=top;resizable=0;rotatable=0;part=1;html=1;" parent="E0lvzS-pT8e3lpkOTQFv-7" vertex="1">
          <mxGeometry y="50" width="160" height="150" as="geometry" />
        </mxCell>
        <mxCell id="E0lvzS-pT8e3lpkOTQFv-9" value="Disciplinas" style="swimlane;childLayout=stackLayout;horizontal=1;startSize=50;horizontalStack=0;rounded=1;fontSize=14;fontStyle=0;strokeWidth=2;resizeParent=0;resizeLast=1;shadow=0;dashed=0;align=center;arcSize=4;whiteSpace=wrap;html=1;" parent="1" vertex="1">
          <mxGeometry x="340" y="670" width="160" height="200" as="geometry" />
        </mxCell>
        <mxCell id="E0lvzS-pT8e3lpkOTQFv-10" value="codigo&amp;nbsp; PK&lt;div&gt;nome&amp;nbsp;&lt;/div&gt;&lt;div&gt;nr aulas&lt;/div&gt;&lt;div&gt;ementa&lt;/div&gt;&lt;div&gt;horário&lt;/div&gt;&lt;div&gt;codigocurso FK&lt;/div&gt;&lt;div&gt;codigoprofessor FK&lt;/div&gt;" style="align=left;strokeColor=none;fillColor=none;spacingLeft=4;fontSize=12;verticalAlign=top;resizable=0;rotatable=0;part=1;html=1;" parent="E0lvzS-pT8e3lpkOTQFv-9" vertex="1">
          <mxGeometry y="50" width="160" height="150" as="geometry" />
        </mxCell>
        <mxCell id="E0lvzS-pT8e3lpkOTQFv-11" value="" style="edgeStyle=entityRelationEdgeStyle;fontSize=12;html=1;endArrow=ERmany;rounded=0;exitX=1.006;exitY=0.433;exitDx=0;exitDy=0;exitPerimeter=0;entryX=0;entryY=0.25;entryDx=0;entryDy=0;" parent="1" source="E0lvzS-pT8e3lpkOTQFv-2" target="E0lvzS-pT8e3lpkOTQFv-4" edge="1">
          <mxGeometry width="100" height="100" relative="1" as="geometry">
            <mxPoint x="430" y="340" as="sourcePoint" />
            <mxPoint x="530" y="240" as="targetPoint" />
          </mxGeometry>
        </mxCell>
        <mxCell id="E0lvzS-pT8e3lpkOTQFv-19" value="" style="edgeStyle=entityRelationEdgeStyle;fontSize=12;html=1;endArrow=ERmany;rounded=0;exitX=1;exitY=0.75;exitDx=0;exitDy=0;entryX=1;entryY=0.25;entryDx=0;entryDy=0;" parent="1" source="E0lvzS-pT8e3lpkOTQFv-2" target="E0lvzS-pT8e3lpkOTQFv-7" edge="1">
          <mxGeometry width="100" height="100" relative="1" as="geometry">
            <mxPoint x="200" y="310" as="sourcePoint" />
            <mxPoint x="300" y="210" as="targetPoint" />
          </mxGeometry>
        </mxCell>
        <mxCell id="E0lvzS-pT8e3lpkOTQFv-23" value="" style="edgeStyle=entityRelationEdgeStyle;fontSize=12;html=1;endArrow=ERmany;startArrow=ERmany;rounded=0;entryX=1;entryY=0.25;entryDx=0;entryDy=0;exitX=1;exitY=0.25;exitDx=0;exitDy=0;" parent="1" source="E0lvzS-pT8e3lpkOTQFv-6" target="E0lvzS-pT8e3lpkOTQFv-10" edge="1">
          <mxGeometry width="100" height="100" relative="1" as="geometry">
            <mxPoint x="370" y="440" as="sourcePoint" />
            <mxPoint x="470" y="340" as="targetPoint" />
          </mxGeometry>
        </mxCell>
        <mxCell id="E0lvzS-pT8e3lpkOTQFv-24" value="" style="edgeStyle=entityRelationEdgeStyle;fontSize=12;html=1;endArrow=ERmany;startArrow=ERmany;rounded=0;exitX=1;exitY=0.25;exitDx=0;exitDy=0;entryX=0;entryY=0.5;entryDx=0;entryDy=0;" parent="1" source="E0lvzS-pT8e3lpkOTQFv-8" target="E0lvzS-pT8e3lpkOTQFv-6" edge="1">
          <mxGeometry width="100" height="100" relative="1" as="geometry">
            <mxPoint x="180" y="585" as="sourcePoint" />
            <mxPoint x="280" y="485" as="targetPoint" />
          </mxGeometry>
        </mxCell>
        <mxCell id="E0lvzS-pT8e3lpkOTQFv-25" value="" style="edgeStyle=entityRelationEdgeStyle;fontSize=12;html=1;endArrow=ERmany;startArrow=ERmany;rounded=0;exitX=1;exitY=0.5;exitDx=0;exitDy=0;entryX=0;entryY=0.25;entryDx=0;entryDy=0;" parent="1" source="E0lvzS-pT8e3lpkOTQFv-8" target="E0lvzS-pT8e3lpkOTQFv-10" edge="1">
          <mxGeometry width="100" height="100" relative="1" as="geometry">
            <mxPoint x="270" y="530" as="sourcePoint" />
            <mxPoint x="370" y="430" as="targetPoint" />
          </mxGeometry>
        </mxCell>
        <mxCell id="E0lvzS-pT8e3lpkOTQFv-26" value="Coordenador" style="swimlane;childLayout=stackLayout;horizontal=1;startSize=50;horizontalStack=0;rounded=1;fontSize=14;fontStyle=0;strokeWidth=2;resizeParent=0;resizeLast=1;shadow=0;dashed=0;align=center;arcSize=4;whiteSpace=wrap;html=1;" parent="1" vertex="1">
          <mxGeometry y="580" width="160" height="200" as="geometry" />
        </mxCell>
        <mxCell id="E0lvzS-pT8e3lpkOTQFv-27" value="&lt;div&gt;codigo PK&lt;/div&gt;nome&lt;div&gt;endereço&lt;/div&gt;&lt;div&gt;cidade&lt;/div&gt;&lt;div&gt;estado&lt;/div&gt;&lt;div&gt;telefone&lt;/div&gt;&lt;div&gt;codigocurso FK&lt;/div&gt;" style="align=left;strokeColor=none;fillColor=none;spacingLeft=4;fontSize=12;verticalAlign=top;resizable=0;rotatable=0;part=1;html=1;" parent="E0lvzS-pT8e3lpkOTQFv-26" vertex="1">
          <mxGeometry y="50" width="160" height="150" as="geometry" />
        </mxCell>
        <mxCell id="E0lvzS-pT8e3lpkOTQFv-30" value="Projetos" style="swimlane;childLayout=stackLayout;horizontal=1;startSize=50;horizontalStack=0;rounded=1;fontSize=14;fontStyle=0;strokeWidth=2;resizeParent=0;resizeLast=1;shadow=0;dashed=0;align=center;arcSize=4;whiteSpace=wrap;html=1;" parent="1" vertex="1">
          <mxGeometry x="530" y="50" width="160" height="230" as="geometry" />
        </mxCell>
        <mxCell id="E0lvzS-pT8e3lpkOTQFv-31" value="codigo PK&lt;div&gt;data inicio&lt;/div&gt;&lt;div&gt;data fim&lt;/div&gt;&lt;div&gt;descrição&lt;/div&gt;&lt;div&gt;custo&lt;/div&gt;&lt;div&gt;nota&lt;/div&gt;&lt;div&gt;codigoprofessor FK&lt;/div&gt;" style="align=left;strokeColor=none;fillColor=none;spacingLeft=4;fontSize=12;verticalAlign=top;resizable=0;rotatable=0;part=1;html=1;" parent="E0lvzS-pT8e3lpkOTQFv-30" vertex="1">
          <mxGeometry y="50" width="160" height="180" as="geometry" />
        </mxCell>
        <mxCell id="E0lvzS-pT8e3lpkOTQFv-32" value="" style="edgeStyle=entityRelationEdgeStyle;fontSize=12;html=1;endArrow=ERmandOne;startArrow=ERmandOne;rounded=0;exitX=0.25;exitY=0;exitDx=0;exitDy=0;entryX=0;entryY=0.25;entryDx=0;entryDy=0;" parent="1" source="E0lvzS-pT8e3lpkOTQFv-26" target="E0lvzS-pT8e3lpkOTQFv-8" edge="1">
          <mxGeometry width="100" height="100" relative="1" as="geometry">
            <mxPoint x="370" y="440" as="sourcePoint" />
            <mxPoint x="470" y="340" as="targetPoint" />
          </mxGeometry>
        </mxCell>
        <mxCell id="E0lvzS-pT8e3lpkOTQFv-33" value="" style="edgeStyle=entityRelationEdgeStyle;fontSize=12;html=1;endArrow=ERmany;startArrow=ERmany;rounded=0;entryX=0;entryY=0.25;entryDx=0;entryDy=0;exitX=1;exitY=0.25;exitDx=0;exitDy=0;" parent="1" source="E0lvzS-pT8e3lpkOTQFv-4" target="E0lvzS-pT8e3lpkOTQFv-31" edge="1">
          <mxGeometry width="100" height="100" relative="1" as="geometry">
            <mxPoint x="370" y="240" as="sourcePoint" />
            <mxPoint x="470" y="140" as="targetPoint" />
          </mxGeometry>
        </mxCell>
        <mxCell id="E0lvzS-pT8e3lpkOTQFv-34" value="" style="edgeStyle=entityRelationEdgeStyle;fontSize=12;html=1;endArrow=ERmany;rounded=0;entryX=0;entryY=0.75;entryDx=0;entryDy=0;exitX=1;exitY=0;exitDx=0;exitDy=0;" parent="1" source="E0lvzS-pT8e3lpkOTQFv-6" target="E0lvzS-pT8e3lpkOTQFv-31" edge="1">
          <mxGeometry width="100" height="100" relative="1" as="geometry">
            <mxPoint x="540" y="455" as="sourcePoint" />
            <mxPoint x="620" y="280" as="targetPoint" />
          </mxGeometry>
        </mxCell>
        <mxCell id="E0lvzS-pT8e3lpkOTQFv-35" value="" style="edgeStyle=entityRelationEdgeStyle;fontSize=12;html=1;endArrow=ERmany;rounded=0;exitX=1;exitY=0.75;exitDx=0;exitDy=0;entryX=0;entryY=0.5;entryDx=0;entryDy=0;" parent="1" source="E0lvzS-pT8e3lpkOTQFv-8" target="E0lvzS-pT8e3lpkOTQFv-31" edge="1">
          <mxGeometry width="100" height="100" relative="1" as="geometry">
            <mxPoint x="330" y="480" as="sourcePoint" />
            <mxPoint x="310" y="342" as="targetPoint" />
            <Array as="points">
              <mxPoint x="340" y="290" />
              <mxPoint x="320" y="280" />
              <mxPoint x="320" y="290" />
              <mxPoint x="330" y="260" />
              <mxPoint x="230" y="360" />
              <mxPoint x="310" y="300" />
            </Array>
          </mxGeometry>
        </mxCell>
      </root>
    </mxGraphModel>
  </diagram>
</mxfile>
